<?xml version="1.0" standalone="no"?>
<!DOCTYPE svg PUBLIC "-//W3C//DTD SVG 1.1//EN" "http://www.w3.org/Graphics/SVG/1.1/DTD/svg11.dtd" >
<svg xmlns="http://www.w3.org/2000/svg">
<metadata></metadata>
<defs>
<font id="insigniaregular" horiz-adv-x="1175" >
<font-face units-per-em="2048" ascent="1638" descent="-410" />
<missing-glyph horiz-adv-x="548" />
<glyph horiz-adv-x="0" />
<glyph horiz-adv-x="682" />
<glyph unicode=" "  horiz-adv-x="548" />
<glyph unicode="&#x09;" horiz-adv-x="548" />
<glyph unicode="&#xa0;" horiz-adv-x="548" />
<glyph unicode="!" horiz-adv-x="569" d="M141 1286h287l-53 -954h-180zM160 98q0 52 36 88.5t89 36.5t89 -36.5t36 -88.5t-36 -88.5t-89 -36.5t-89 36.5t-36 88.5z" />
<glyph unicode="&#x22;" horiz-adv-x="720" d="M80 905v381h213v-381h-213zM428 905v381h213v-381h-213z" />
<glyph unicode="#" horiz-adv-x="1228" d="M117 367v176h194l29 200h-170v177h195l51 366h182l-51 -366h213l51 366h182l-51 -366h170v-177h-194l-29 -200h170v-176h-195l-51 -367h-182l51 367h-213l-51 -367h-182l51 367h-170zM494 543h213l28 200h-213z" />
<glyph unicode="$" horiz-adv-x="1290" d="M72 211l180 162q75 -80 174 -127t207 -47q139 2 223 52t84 140q0 46 -28.5 76.5t-76.5 46.5t-110 26.5t-131 19.5t-137.5 21.5t-130.5 37t-110 61.5t-76.5 99.5t-28.5 146.5q0 143 113.5 245t291.5 132v213h225v-209q252 -24 414 -191l-176 -158q-85 84 -168 119t-180 35 q-136 0 -203.5 -53t-67.5 -121q0 -46 28.5 -76.5t76.5 -46t110 -25.5t131 -18.5t138 -20t131 -36.5t110 -62t76.5 -100.5t28.5 -149.5q0 -112 -62 -202.5t-162.5 -144.5t-224.5 -72v-222h-225v220q-257 34 -444 229z" />
<glyph unicode="%" horiz-adv-x="983" d="M49 1059q0 79 56.5 135.5t136.5 56.5t136 -56.5t56 -135.5q0 -80 -56.5 -136.5t-135.5 -56.5q-80 0 -136.5 57t-56.5 136zM156 1059q0 -35 25.5 -60.5t60.5 -25.5t60.5 25.5t25.5 60.5t-25.5 60.5t-60.5 25.5t-60.5 -25.5t-25.5 -60.5zM180 0l426 1286h197l-426 -1286 h-197zM549 227q0 80 56.5 136.5t135.5 56.5t136 -57t57 -136t-56.5 -135.5t-136.5 -56.5q-79 0 -135.5 56.5t-56.5 135.5zM655 227q0 -35 25.5 -60.5t60.5 -25.5t60.5 25.5t25.5 60.5t-25.5 60.5t-60.5 25.5t-60.5 -25.5t-25.5 -60.5z" />
<glyph unicode="&#x26;" horiz-adv-x="1327" d="M109 375q0 117 65 205t188 122v5q-74 24 -120.5 93t-46.5 161q0 68 27 130.5t78.5 112t133.5 79.5t184 30q116 0 208.5 -44t146.5 -124l-199 -96q-63 88 -170 88q-80 0 -138 -49.5t-58 -122.5q0 -87 50.5 -136t151.5 -49h64v-182q-24 6 -68 6q-115 0 -193.5 -60.5 t-78.5 -162.5q0 -91 68.5 -155t195.5 -64q85 0 148 33.5t100 95.5t54.5 144.5t17.5 187.5q0 5 -7 149h353v-143h-134v-80q0 -251 -146 -413.5t-390 -162.5q-98 0 -185 26.5t-154 76.5t-106.5 127t-39.5 172z" />
<glyph unicode="'" horiz-adv-x="454" d="M121 905v381h213v-381h-213z" />
<glyph unicode="(" horiz-adv-x="569" d="M92 592q0 211 72 414.5t231 416.5l174 -135q-140 -212 -189.5 -370t-49.5 -326t49.5 -326t189.5 -370l-174 -136q-159 213 -231 416.5t-72 415.5z" />
<glyph unicode=")" horiz-adv-x="569" d="M0 -104q141 212 190.5 370t49.5 326t-49.5 326t-190.5 370l174 135q159 -213 231 -416.5t72 -414.5q0 -212 -72 -415.5t-231 -416.5z" />
<glyph unicode="*" horiz-adv-x="606" d="M31 1044l41 119l168 -53v176h127v-176l168 53l40 -119l-167 -57l104 -143l-102 -70l-107 148l-106 -148l-103 70l105 143z" />
<glyph unicode="+" horiz-adv-x="1228" d="M96 412v213h412v411h213v-411h412v-213h-412v-412h-213v412h-412z" />
<glyph unicode="," horiz-adv-x="548" d="M168 -170v381h213v-238z" />
<glyph unicode="-" horiz-adv-x="606" d="M98 557v201h410v-201h-410z" />
<glyph unicode="." horiz-adv-x="548" d="M150 98q0 53 36 89t88 36t88.5 -36.5t36.5 -88.5t-36.5 -88.5t-88.5 -36.5t-88 36t-36 89z" />
<glyph unicode="/" horiz-adv-x="681" d="M-10 -27l477 1340h225l-477 -1340h-225z" />
<glyph unicode="0" horiz-adv-x="1097" d="M117 420v446q0 108 35.5 194.5t96 141t137.5 83t163 28.5t163 -28.5t137.5 -83t96 -141t35.5 -194.5v-446q0 -108 -35.5 -194.5t-96 -141t-137.5 -83t-163 -28.5t-163 28.5t-137.5 83t-96 141t-35.5 194.5zM354 406q0 -101 57 -154t138 -53q80 0 137 53t57 154v475 q0 101 -56.5 153.5t-137.5 52.5t-138 -52.5t-57 -153.5v-475z" />
<glyph unicode="1" horiz-adv-x="647" d="M57 819v248l410 246v-1313h-238v936z" />
<glyph unicode="2" horiz-adv-x="1138" d="M55 1034q87 130 221.5 204.5t298.5 74.5q108 0 197.5 -32.5t148 -88t90 -128.5t31.5 -155q0 -192 -215 -354l-446 -338v-4h657v-213h-956v236l612 483q111 89 111 194q0 85 -72 142t-172 57q-88 0 -162.5 -43.5t-122.5 -118.5z" />
<glyph unicode="3" horiz-adv-x="1097" d="M16 162l185 147q130 -123 282 -123q122 0 204.5 77t82.5 181q0 112 -90 185t-246 73q-62 0 -155 -22l301 393h-504v213h932l-357 -444q68 -3 132 -32.5t114 -79t80.5 -122t30.5 -155.5q0 -89 -35.5 -173.5t-101 -153.5t-169 -111t-227.5 -42q-284 0 -459 189z" />
<glyph unicode="4" horiz-adv-x="1064" d="M16 309l430 977h234l-338 -764h279v309h225v-309h178v-213h-178v-309h-225v309h-605z" />
<glyph unicode="5" horiz-adv-x="1097" d="M43 154l188 159q48 -60 123 -93.5t166 -33.5q117 0 195 77.5t76 185.5q-2 106 -74.5 177.5t-179.5 71.5q-147 0 -234 -104h-184l67 692h760v-213h-551l-30 -235q83 61 229 61q63 0 125 -18t118 -55t98.5 -89t67.5 -125.5t25 -158.5q0 -69 -19 -136t-60.5 -129.5 t-100 -110t-144.5 -76t-188 -28.5q-138 0 -248.5 41t-224.5 140z" />
<glyph unicode="6" horiz-adv-x="1097" d="M74 401q0 102 27.5 184.5t91.5 188.5l333 557l234 -82l-264 -397q58 10 106 10q124 0 221.5 -59.5t149 -157.5t51.5 -215q0 -197 -128.5 -327t-346.5 -130q-114 0 -207.5 39.5t-150.5 102.5t-87 137t-30 149zM299 424q0 -103 73.5 -176.5t176.5 -73.5t176.5 73.5 t73.5 176.5t-73.5 176.5t-176.5 73.5t-176.5 -73.5t-73.5 -176.5z" />
<glyph unicode="7" horiz-adv-x="1024" d="M78 856v430h946l-539 -1286h-233l448 1073h-397v-217h-225z" />
<glyph unicode="8" horiz-adv-x="1138" d="M96 383q0 116 66.5 200.5t173.5 116.5q-59 30 -98 78.5t-53.5 95t-14.5 93.5q0 146 116.5 246t282.5 100q167 0 283.5 -100t116.5 -246q0 -47 -14.5 -93.5t-53.5 -95t-98 -78.5q107 -32 173 -116.5t66 -200.5q0 -181 -132 -295.5t-341 -114.5t-341 114.5t-132 295.5z M322 387q0 -82 65 -147.5t182 -65.5t182.5 65.5t65.5 147.5q0 84 -65 146.5t-183 62.5t-182.5 -62.5t-64.5 -146.5zM395 954q0 -68 48.5 -125t125.5 -57t125.5 57t48.5 125q0 69 -48.5 126t-125.5 57t-125.5 -57t-48.5 -126z" />
<glyph unicode="9" horiz-adv-x="1097" d="M74 856q0 197 128.5 327t346.5 130q114 0 207.5 -39.5t150.5 -102.5t87 -137t30 -149q0 -102 -27.5 -184.5t-91.5 -188.5l-334 -557l-233 82l264 397q-58 -10 -106 -10q-124 0 -221.5 59.5t-149 157.5t-51.5 215zM299 862q0 -103 73.5 -176.5t176.5 -73.5t176.5 73.5 t73.5 176.5t-73.5 176.5t-176.5 73.5t-176.5 -73.5t-73.5 -176.5z" />
<glyph unicode=":" horiz-adv-x="548" d="M150 98q0 53 36 89t88 36t88.5 -36.5t36.5 -88.5t-36.5 -88.5t-88.5 -36.5t-88 36t-36 89zM150 893q0 53 36 89t88 36t88.5 -36t36.5 -89t-36.5 -89t-88.5 -36t-88 36t-36 89z" />
<glyph unicode=";" horiz-adv-x="548" d="M150 893q0 53 36 89t88 36t88.5 -36t36.5 -89t-36.5 -89t-88.5 -36t-88 36t-36 89zM168 -170v381h213v-238z" />
<glyph unicode="&#x3c;" horiz-adv-x="1228" d="M96 430v176l1037 447v-209l-764 -326l764 -325v-209z" />
<glyph unicode="=" horiz-adv-x="1228" d="M96 186v213h1037v-213h-1037zM96 637v213h1037v-213h-1037z" />
<glyph unicode="&#x3e;" horiz-adv-x="1228" d="M96 -16v209l764 325l-764 326v209l1037 -447v-176z" />
<glyph unicode="?" horiz-adv-x="1138" d="M76 1114q171 199 436 199q229 0 372.5 -130t143.5 -337q0 -185 -119 -304.5t-297 -119.5v-90h-188v268q27 -6 59 -6q130 0 212.5 70.5t82.5 183.5q0 109 -77 180.5t-189 71.5q-81 0 -146 -31.5t-128 -97.5zM393 98q0 52 36.5 88.5t88.5 36.5t88.5 -36.5t36.5 -88.5 t-36.5 -88.5t-88.5 -36.5t-88.5 36.5t-36.5 88.5z" />
<glyph unicode="@" horiz-adv-x="1638" d="M150 643q0 182 92 336.5t250 244t344 89.5q172 0 320 -67t240.5 -194t92.5 -288q0 -108 -37 -198t-91 -144.5t-119 -93t-118 -53.5t-90 -15q-51 0 -81 29t-33 67h-5q-72 -96 -196 -96q-103 0 -190 92t-87 228q0 87 33.5 166.5t86.5 133.5t118 86.5t127 32.5 q161 0 237 -120l23 94h160l-109 -463q-10 -38 -10 -61q0 -37 29 -37q75 0 137.5 87t62.5 222q0 206 -140 323t-361 117q-103 0 -197 -40t-163 -108.5t-109.5 -165t-40.5 -204.5t40.5 -204.5t109.5 -165t163 -108.5t197 -40q269 0 417 133h160q-95 -138 -242.5 -211.5 t-334.5 -73.5q-186 0 -344 89.5t-250 244t-92 336.5zM631 584q0 -63 38 -105.5t101 -42.5q90 0 150.5 72t60.5 170q0 55 -38 94t-97 39q-91 0 -153 -70.5t-62 -156.5z" />
<glyph unicode="A" horiz-adv-x="1251" d="M0 0l469 1073h-295v213h533l544 -1286h-256l-98 242h-545l-98 -242h-254zM438 455h375l-186 460z" />
<glyph unicode="B" horiz-adv-x="1366" d="M31 547v225h153v514h686q101 0 183.5 -37t135 -117t52.5 -190q0 -88 -42.5 -155.5t-115.5 -100.5q105 -34 167.5 -114.5t62.5 -198.5q0 -169 -111.5 -271t-283.5 -102h-734v547h-153zM422 225h469q79 0 131.5 46t52.5 114q0 69 -52.5 115.5t-131.5 46.5h-469v-322z M422 772h422q75 0 117.5 42t42.5 104q0 60 -42.5 101.5t-117.5 41.5h-422v-289z" />
<glyph unicode="C" horiz-adv-x="1366" d="M68 643q0 139 54 263.5t146 213.5t220 141t270 52q159 0 302 -66.5t247 -197.5l-197 -148q-62 90 -153 138t-199 48q-115 0 -216 -58t-163 -161t-62 -225t62 -225t163 -161t216 -58q108 0 201 47t155 131l193 -139q-104 -132 -247.5 -198.5t-301.5 -66.5q-142 0 -270 52 t-220 141t-146 213.5t-54 263.5z" />
<glyph unicode="D" horiz-adv-x="1478" d="M178 0v1286h543q158 0 290 -52.5t218.5 -141.5t134 -205t47.5 -244t-49 -244t-136.5 -205t-218.5 -141.5t-286 -52.5h-543zM416 225h305q202 0 327.5 121.5t125.5 296.5t-125.5 296.5t-327.5 121.5h-305v-836z" />
<glyph unicode="E" horiz-adv-x="1251" d="M31 547v225h153v514h987v-225h-749v-289h522v-225h-522v-322h749v-225h-987v547h-153z" />
<glyph unicode="F" horiz-adv-x="1138" d="M31 547v225h153v514h987v-225h-749v-289h522v-225h-522v-547h-238v547h-153z" />
<glyph unicode="G" horiz-adv-x="1515" d="M68 643q0 139 54 263.5t146 213.5t220 141t270 52q159 0 302 -66.5t247 -197.5l-197 -148q-62 90 -153 138t-199 48q-115 0 -216 -58t-163 -161t-62 -225t62 -225t163 -161t216 -58q162 0 280 93t156 255h-438v225h692v-170q0 -67 -23 -146.5t-77 -166t-130.5 -156 t-196.5 -115t-263 -45.5q-142 0 -270 52t-220 141t-146 213.5t-54 263.5z" />
<glyph unicode="H" horiz-adv-x="1402" d="M31 547v225h153v514h238v-514h588v514h237v-1286h-237v547h-588v-547h-238v547h-153z" />
<glyph unicode="I" horiz-adv-x="569" d="M166 0v1286h237v-1286h-237z" />
<glyph unicode="J" horiz-adv-x="720" d="M14 -27v226q324 28 324 372v490h-207v225h444v-735q0 -135 -45.5 -246t-123 -182t-178.5 -110t-214 -40z" />
<glyph unicode="K" horiz-adv-x="1251" d="M31 547v225h153v514h238v-514h88l432 514h297l-496 -567l514 -719h-303l-374 547h-158v-547h-238v547h-153z" />
<glyph unicode="L" horiz-adv-x="1214" d="M162 0v1286h237v-1061h506v307h238v-532h-981z" />
<glyph unicode="M" horiz-adv-x="1441" d="M150 0v1313l571 -578l571 578v-1313h-237v795l-334 -346l-334 346v-795h-237z" />
<glyph unicode="N" horiz-adv-x="1366" d="M150 0v1313l829 -815v788h238v-1313l-830 815v-788h-237z" />
<glyph unicode="O" horiz-adv-x="1515" d="M68 643q0 139 54 263.5t146 213.5t220 141t270 52t270 -52t220 -141t146 -213.5t54 -263.5t-54 -263.5t-146 -213.5t-220 -141t-270 -52t-270 52t-220 141t-146 213.5t-54 263.5zM317 643q0 -122 62 -225t163 -161t216 -58q86 0 166.5 34.5t140.5 93.5t96.5 142t36.5 174 t-36.5 174t-96.5 142t-140.5 93.5t-166.5 34.5q-115 0 -216 -58t-163 -161t-62 -225z" />
<glyph unicode="P" horiz-adv-x="1290" d="M31 406v225h153v655h613q211 0 337 -123.5t126 -316.5t-126 -316.5t-337 -123.5h-375v-406h-238v406h-153zM422 631h356q120 0 182 61t62 154t-62 154t-182 61h-356v-430z" />
<glyph unicode="Q" horiz-adv-x="1515" d="M68 643q0 139 54 263.5t146 213.5t220 141t270 52t270 -52t220 -141t146 -213.5t54 -263.5q0 -253 -166 -438.5t-418 -222.5v-170h-213v170q-252 37 -417.5 222.5t-165.5 438.5zM317 643q0 -155 96 -274t238 -154v203h213v-203q143 36 238.5 154.5t95.5 273.5 q0 91 -36.5 174t-96.5 142t-140.5 93.5t-166.5 34.5q-115 0 -216 -58t-163 -161t-62 -225z" />
<glyph unicode="R" horiz-adv-x="1327" d="M31 406v225h153v655h613q211 0 337 -123.5t126 -316.5q0 -136 -85 -241t-217 -146l322 -459h-299l-268 406h-291v-406h-238v406h-153zM422 631h356q120 0 182 61t62 154t-62 154t-182 61h-356v-430z" />
<glyph unicode="S" horiz-adv-x="1251" d="M51 211l180 162q75 -80 174 -127t207 -47q139 2 223.5 52t84.5 140q0 58 -46 92t-119 48.5t-161.5 25t-177 30t-161.5 54t-119 107t-46 178.5q0 112 72 201t193.5 137.5t267.5 48.5q318 0 512 -197l-177 -158q-85 84 -168 119t-180 35q-136 0 -203 -53t-67 -121 q0 -46 28.5 -76.5t76.5 -46t110 -25.5t130.5 -18.5t137.5 -20t131 -36.5t110 -62t76.5 -100.5t28.5 -149.5q0 -129 -81 -229t-208.5 -150.5t-277.5 -50.5q-145 0 -290.5 58.5t-260.5 179.5z" />
<glyph unicode="T" horiz-adv-x="1064" d="M37 1061v225h991v-225h-377v-1061h-237v1061h-377z" />
<glyph unicode="U" horiz-adv-x="1441" d="M150 524v762h237v-711q0 -172 95.5 -274t238.5 -102q144 0 239 102t95 274v711h237v-762q0 -149 -70 -274t-202 -201t-299 -76t-299 76t-202 201t-70 274z" />
<glyph unicode="V" horiz-adv-x="1138" d="M0 1286h256l313 -786l314 786h256l-570 -1313z" />
<glyph unicode="W" horiz-adv-x="1705" d="M18 1286h250l291 -762l293 693l297 -693l287 762h252l-539 -1313l-297 746l-309 -746z" />
<glyph unicode="X" horiz-adv-x="1138" d="M39 0l395 643l-395 643h283l247 -436l265 436h266l-395 -643l395 -643h-283l-248 436l-264 -436h-266z" />
<glyph unicode="Y" d="M8 1286h275l305 -500l305 500h274l-460 -719v-567h-238v567z" />
<glyph unicode="Z" horiz-adv-x="1214" d="M63 0l670 1061h-633v225h1051l-680 -1061h672v-225h-1080z" />
<glyph unicode="[" horiz-adv-x="569" d="M164 -197v1577h446v-200h-221v-1176h221v-201h-446z" />
<glyph unicode="\" horiz-adv-x="681" d="M-10 1313h225l477 -1340h-225z" />
<glyph unicode="]" horiz-adv-x="569" d="M-41 4h221v1176h-221v200h447v-1577h-447v201z" />
<glyph unicode="^" horiz-adv-x="1228" d="M135 498l383 788h193l383 -788h-213l-267 575l-266 -575h-213z" />
<glyph unicode="_" horiz-adv-x="1024" d="M0 -154h1024v-102h-1024v102z" />
<glyph unicode="`" horiz-adv-x="491" d="M4 1202v148l402 -103v-147z" />
<glyph unicode="a" horiz-adv-x="1253" d="M61 496q0 92 37.5 184.5t103.5 168t167 122.5t217 47q106 0 189 -41t126 -107h4v121h213v-991h-213v121h-4q-51 -68 -138.5 -108t-187.5 -40q-118 0 -217 45.5t-163 120t-99 167.5t-35 190zM287 496q0 -133 93 -227.5t222 -94.5q127 0 219 94.5t92 227.5t-92 227t-219 94 q-129 0 -222 -94t-93 -227z" />
<glyph unicode="b" horiz-adv-x="1253" d="M135 0v1286h213v-416h4q39 63 130.5 105.5t193.5 42.5q78 0 153 -22t140.5 -66.5t115 -106t78.5 -146t29 -181.5t-29 -181.5t-78.5 -146.5t-115 -106.5t-140.5 -66.5t-153 -22q-102 0 -193.5 42.5t-130.5 105.5h-4v-121h-213zM348 496q0 -138 88 -230t221 -92t221.5 92 t88.5 230t-88.5 229.5t-221.5 91.5t-221 -91.5t-88 -229.5z" />
<glyph unicode="c" horiz-adv-x="1099" d="M61 496q0 99 37.5 192t105.5 167t173.5 118.5t230.5 44.5q279 0 445 -240l-187 -110q-97 149 -258 149q-138 0 -229.5 -93t-91.5 -228t91.5 -228.5t229.5 -93.5q163 0 258 150l187 -111q-68 -107 -187.5 -173.5t-257.5 -66.5q-101 0 -189.5 29t-153 79.5t-111 117 t-70 142.5t-23.5 155z" />
<glyph unicode="d" horiz-adv-x="1253" d="M61 496q0 92 37.5 184.5t103.5 168t167 122.5t217 47q106 0 189 -41t126 -107h4v416h213v-1286h-213v121h-4q-51 -68 -138.5 -108t-187.5 -40q-118 0 -217 45.5t-163 120t-99 167.5t-35 190zM287 496q0 -133 93 -227.5t222 -94.5q127 0 219 94.5t92 227.5t-92 227 t-219 94q-129 0 -222 -94t-93 -227z" />
<glyph unicode="e" horiz-adv-x="1216" d="M78 496q0 99 37.5 192t105.5 167t173.5 118.5t230.5 44.5q64 0 133 -20t137.5 -65t122.5 -108t87.5 -158t33.5 -206v-39h-824q9 -112 98.5 -186t204.5 -74q171 0 287 153l180 -100q-90 -114 -209 -177.5t-251 -64.5q-101 0 -189.5 29t-153 79.5t-111 117t-70 142.5 t-23.5 155zM315 598h574q-33 112 -111 171.5t-182 59.5q-103 0 -179 -61t-102 -170z" />
<glyph unicode="f" horiz-adv-x="645" d="M51 586v200h139v168q0 71 22 134t65.5 114t116 81t165.5 30q97 0 164 -27l-88 -192q-43 18 -94 18q-62 0 -100 -43.5t-38 -101.5v-181h213v-200h-213v-928h-213v928h-139z" />
<glyph unicode="g" horiz-adv-x="1216" d="M61 506q0 119 42 217t112.5 161.5t161 98.5t190.5 35q200 0 310 -144h4v117h200v-880q0 -119 -43 -218.5t-115.5 -163.5t-165.5 -99.5t-194 -35.5q-111 0 -224.5 49.5t-193.5 147.5l174 127q35 -48 99.5 -85.5t134.5 -37.5q155 0 241.5 85.5t86.5 207.5v66 q-70 -77 -151 -115.5t-187 -38.5q-129 0 -238 60t-176.5 177t-67.5 269zM287 510q0 -132 83 -220.5t216 -88.5q128 0 211.5 89t83.5 218t-86.5 219t-208.5 90q-124 0 -211.5 -89.5t-87.5 -217.5z" />
<glyph unicode="h" d="M135 0v1286h213v-420h4q45 70 124.5 111t178.5 41q160 0 272.5 -119.5t112.5 -300.5v-598h-213v551q0 130 -62 192t-173 62q-107 0 -175.5 -66t-68.5 -184v-555h-213z" />
<glyph unicode="i" horiz-adv-x="491" d="M127 1194q0 50 34.5 84.5t84.5 34.5t84.5 -34.5t34.5 -84.5t-34.5 -84.5t-84.5 -34.5t-84.5 34.5t-34.5 84.5zM139 0v991h213v-991h-213z" />
<glyph unicode="j" horiz-adv-x="491" d="M-47 -236q112 59 149 106t37 134v987h213v-1001q0 -132 -73 -226t-240 -170zM127 1194q0 50 34.5 84.5t84.5 34.5t84.5 -34.5t34.5 -84.5t-34.5 -84.5t-84.5 -34.5t-84.5 34.5t-34.5 84.5z" />
<glyph unicode="k" horiz-adv-x="1024" d="M29 414v200h139v672h213v-672h108l261 377h258l-336 -467l352 -524h-252l-262 414h-129v-414h-213v414h-139z" />
<glyph unicode="l" horiz-adv-x="532" d="M139 360v926h213v-887q0 -83 19.5 -123t68.5 -69l115 -66l-94 -168q-72 34 -118.5 60.5t-89 60.5t-65.5 70.5t-36 85t-13 110.5z" />
<glyph unicode="m" horiz-adv-x="1593" d="M135 0v621q0 182 105 289.5t258 107.5q110 0 188.5 -48t108.5 -128h4q30 80 108.5 128t188.5 48q153 0 257.5 -107.5t104.5 -289.5v-621h-213v618q0 86 -47.5 136.5t-116.5 50.5q-81 0 -129.5 -52.5t-48.5 -162.5v-590h-213v590q0 110 -48.5 162.5t-129.5 52.5 q-69 0 -116.5 -50.5t-47.5 -136.5v-618h-213z" />
<glyph unicode="n" d="M135 0v991h213v-125h4q45 70 124.5 111t178.5 41q160 0 272.5 -119.5t112.5 -300.5v-598h-213v551q0 130 -62 192t-173 62q-107 0 -175.5 -66t-68.5 -184v-555h-213z" />
<glyph unicode="o" horiz-adv-x="1216" d="M61 496q0 99 37.5 192t105.5 167t173.5 118.5t230.5 44.5t230.5 -44.5t173.5 -118.5t105.5 -167t37.5 -192q0 -79 -23.5 -155t-70 -142.5t-111 -117t-153 -79.5t-189.5 -29t-189.5 29t-153 79.5t-111 117t-70 142.5t-23.5 155zM287 496q0 -135 91.5 -228.5t229.5 -93.5 t230 93.5t92 228.5t-92 228t-230 93t-229.5 -93t-91.5 -228z" />
<glyph unicode="p" horiz-adv-x="1253" d="M135 -342v1333h213v-121h4q120 148 326 148q118 0 217 -45.5t163 -120t99 -167t35 -189.5q0 -92 -37.5 -184.5t-103 -168t-166.5 -123t-217 -47.5q-106 0 -189.5 41t-126.5 107h-4v-463h-213zM340 496q0 -133 92 -227.5t219 -94.5q129 0 222.5 94.5t93.5 227.5t-93 227 t-223 94q-127 0 -219 -94t-92 -227z" />
<glyph unicode="q" horiz-adv-x="1253" d="M61 496q0 97 35 189.5t99 167t163 120t217 45.5q206 0 326 -148h4v121h213v-1333h-213v463h-4q-43 -66 -126 -107t-189 -41q-116 0 -217 47.5t-167 123t-103.5 168t-37.5 184.5zM287 496q0 -133 93 -227.5t222 -94.5q127 0 219 94.5t92 227.5t-92 227t-219 94 q-129 0 -222 -94t-93 -227z" />
<glyph unicode="r" horiz-adv-x="645" d="M135 0v991h201v-108h4q26 62 78.5 98.5t116.5 36.5q66 0 116 -31l-76 -211q-15 12 -39 20.5t-40 8.5q-60 0 -104 -42t-44 -108v-655h-213z" />
<glyph unicode="s" horiz-adv-x="948" d="M41 147l145 148q58 -63 144.5 -104t167.5 -41q86 0 141 39.5t55 84.5q0 92 -129 115l-121 23q-200 37 -278 103.5t-78 178.5q0 133 105.5 228.5t283.5 95.5q200 0 393 -137l-120 -150q-131 111 -267 111q-73 0 -127.5 -34t-54.5 -91q0 -83 129 -105l215 -41 q133 -25 197.5 -89.5t64.5 -174.5q0 -57 -24 -113.5t-72 -107t-132 -82t-192 -31.5q-242 0 -446 174z" />
<glyph unicode="t" horiz-adv-x="606" d="M45 791v200h121v262l213 60v-322h170v-200h-170v-392q0 -78 20 -121t68 -71l115 -66l-95 -168q-90 43 -144 76t-97.5 78t-61.5 100.5t-18 132.5v431h-121z" />
<glyph unicode="u" d="M135 418v573h213v-555q0 -108 69.5 -179t170.5 -71t170 71t69 179v555h213v-573q0 -135 -64.5 -238t-166 -155t-221.5 -52t-222 52t-166.5 155t-64.5 238z" />
<glyph unicode="v" horiz-adv-x="909" d="M-4 991h237l220 -567h4l219 567h237l-458 -1018z" />
<glyph unicode="w" horiz-adv-x="1253" d="M10 991h230l176 -536h4l207 475l207 -475h4l176 536h229l-383 -1018l-231 537h-4l-232 -537z" />
<glyph unicode="x" horiz-adv-x="987" d="M18 0l361 485l-350 506h266l207 -340l203 340h249l-348 -493l363 -498h-271l-209 332l-219 -332h-252z" />
<glyph unicode="y" d="M135 418v573h213v-581q0 -119 64.5 -177.5t169.5 -58.5q121 0 183 68.5t62 187.5v561h213v-960q0 -87 -29.5 -161.5t-76.5 -124t-107.5 -84.5t-121 -51t-117.5 -16q-106 0 -187.5 27.5t-129.5 65.5t-103 102l180 111q108 -105 227 -105q113 0 189 68t76 192v54h-4 q-65 -73 -132 -104.5t-167 -31.5q-171 0 -286.5 121t-115.5 324z" />
<glyph unicode="z" horiz-adv-x="909" d="M37 0l479 791h-438v200h794l-481 -790h469v-201h-823z" />
<glyph unicode="{" horiz-adv-x="569" d="M-20 508v168q70 0 127 38.5t57 82.5v356q0 99 80 163t172 64h194v-163h-110q-111 0 -111 -111v-328q0 -76 -62 -130t-139 -54v-4q77 0 139 -54t62 -130v-328q0 -111 111 -111h110v-164h-194q-91 0 -171.5 64.5t-80.5 163.5v356q0 44 -57 82.5t-127 38.5z" />
<glyph unicode="|" horiz-adv-x="454" d="M121 -27v1340h213v-1340h-213z" />
<glyph unicode="}" horiz-adv-x="569" d="M-41 -33h111q110 0 110 111v328q0 76 62 130t139 54v4q-77 0 -139 54t-62 130v328q0 111 -110 111h-111v163h195q92 0 172 -64t80 -163v-356q0 -44 57 -82.5t127 -38.5v-168q-70 0 -127 -38.5t-57 -82.5v-356q0 -99 -80.5 -163.5t-171.5 -64.5h-195v164z" />
<glyph unicode="~" horiz-adv-x="1228" d="M141 522q78 174 256 174q80 0 236 -69q11 -5 37.5 -17t38.5 -17.5t33.5 -14.5t34.5 -12.5t29 -7t28 -3.5q44 0 91 39t89 108l73 -188q-115 -172 -256 -172q-38 0 -79 11t-64.5 22t-69.5 35q-87 45 -133 59t-98 14q-61 0 -101 -41.5t-71 -107.5z" />
<glyph unicode="&#xa1;" horiz-adv-x="569" d="M141 -295l54 954h180l53 -954h-287zM160 893q0 53 36 89t89 36t89 -36t36 -89t-36 -89t-89 -36t-89 36t-36 89z" />
<glyph unicode="&#xa2;" horiz-adv-x="1097" d="M61 496q0 109 49 213.5t147 187t226 109.5v159h213v-155q223 -36 357 -232l-187 -110q-48 68 -115 108.5t-143 40.5q-134 0 -227.5 -93.5t-93.5 -227.5t94 -228t227 -94q77 0 144.5 41t113.5 109l187 -111q-56 -87 -151 -149t-206 -82v-156h-213v162q-128 26 -226 108 t-147 186.5t-49 213.5z" />
<glyph unicode="&#xa3;" horiz-adv-x="909" d="M25 0v164q86 3 127.5 48t56.5 146l33 201h-129v213h163l37 221q25 152 116.5 236t240.5 84q102 0 178 -27l-37 -213q-58 39 -117 39q-139 0 -168 -184l-26 -156h266v-213h-303l-31 -184q-15 -101 -55 -150h459v-225h-811z" />
<glyph unicode="&#xa4;" horiz-adv-x="1228" d="M86 233l115 115q-95 132 -95 295t95 295l-115 115l125 125l115 -117q129 90 288 90q160 0 289 -90l115 117l125 -125l-115 -115q94 -131 94 -295t-94 -295l115 -115l-125 -124l-115 116q-129 -90 -289 -90q-159 0 -288 90l-115 -116zM319 643q0 -129 84.5 -218t210.5 -89 t210.5 89t84.5 218t-84.5 218t-210.5 89t-210.5 -89t-84.5 -218z" />
<glyph unicode="&#xa5;" horiz-adv-x="1097" d="M8 1286h256l291 -500l285 500h250l-363 -604h225v-152h-297v-104h297v-152h-297v-274h-213v274h-297v152h297v104h-297v152h226z" />
<glyph unicode="&#xa6;" horiz-adv-x="454" d="M121 -27v484h213v-484h-213zM121 829v484h213v-484h-213z" />
<glyph unicode="&#xa7;" horiz-adv-x="1214" d="M61 709q0 109 74.5 187t196.5 79q-23 62 -23 80q0 103 99 180.5t239 77.5q219 0 371 -144l-137 -151q-103 106 -244 106q-58 0 -92.5 -21.5t-34.5 -55.5q0 -28 16.5 -45t57.5 -27l325 -82q244 -61 244 -279q0 -71 -27 -130t-68 -93.5t-84.5 -53t-82.5 -18.5q-15 0 -27 3 q25 -55 25 -105q0 -33 -23 -73t-67.5 -79.5t-124.5 -65.5t-180 -26q-102 0 -206.5 39t-176.5 107l135 157q108 -114 282 -114q70 0 115 31t45 81q0 64 -88 84l-311 70q-109 25 -168.5 97t-59.5 184zM262 709q0 -78 121 -103l391 -88q45 -10 90 -10q35 0 61.5 28t26.5 72 q0 83 -116 107l-377 82q-60 14 -103 14q-44 0 -69 -29.5t-25 -72.5z" />
<glyph unicode="&#xa8;" horiz-adv-x="491" d="M-6 1206q0 44 31 75.5t75 31.5t75.5 -31.5t31.5 -75.5t-31.5 -75t-75.5 -31t-75 31t-31 75zM285 1206q0 44 31 75.5t75 31.5t75.5 -31.5t31.5 -75.5t-31.5 -75t-75.5 -31t-75 31t-31 75z" />
<glyph unicode="&#xa9;" horiz-adv-x="1638" d="M150 643q0 137 53 261t142 213.5t213 142.5t261 53t261 -53t213.5 -142.5t142.5 -213.5t53 -261t-53 -261t-142.5 -213.5t-213.5 -142.5t-261 -53t-261 53t-213 142.5t-142 213.5t-53 261zM326 643q0 -222 144.5 -370t348.5 -148q133 0 246 66t180.5 185.5t67.5 266.5 t-67.5 266.5t-180.5 185.5t-246 66q-204 0 -348.5 -148t-144.5 -370zM467 643q0 174 101.5 284.5t273.5 110.5q126 0 213.5 -71.5t107.5 -200.5h-157q-12 56 -58 88.5t-104 32.5q-88 0 -138.5 -67.5t-50.5 -176.5t50.5 -176.5t138.5 -67.5q58 0 104 32.5t58 88.5h157 q-20 -129 -107.5 -200.5t-213.5 -71.5q-172 0 -273.5 110.5t-101.5 284.5z" />
<glyph unicode="&#xaa;" horiz-adv-x="815" d="M37 999q0 138 96 226t244 88q59 0 111 -25.5t73 -68.5h4v77h176v-594h-176v78h-4q-22 -42 -75 -68t-117 -26q-143 0 -237.5 87t-94.5 226zM213 999q0 -71 50 -122.5t132 -51.5q72 0 127.5 53t55.5 121q0 71 -54 123t-129 52q-79 0 -130.5 -52.5t-51.5 -122.5z" />
<glyph unicode="&#xab;" horiz-adv-x="1024" d="M86 561l303 457l182 -64l-276 -393l276 -393l-182 -64zM453 561l303 457l182 -64l-276 -393l276 -393l-182 -64z" />
<glyph unicode="&#xac;" horiz-adv-x="1228" d="M96 637v213h1037v-627h-213v414h-824z" />
<glyph unicode="&#xad;" horiz-adv-x="606" d="M98 557v201h410v-201h-410z" />
<glyph unicode="&#xae;" horiz-adv-x="1638" d="M150 643q0 137 53 261t142 213.5t213 142.5t261 53t261 -53t213.5 -142.5t142.5 -213.5t53 -261t-53 -261t-142.5 -213.5t-213.5 -142.5t-261 -53t-261 53t-213 142.5t-142 213.5t-53 261zM326 643q0 -222 144.5 -370t348.5 -148q133 0 246 66t180.5 185.5t67.5 266.5 t-67.5 266.5t-180.5 185.5t-246 66q-204 0 -348.5 -148t-144.5 -370zM553 272v746h291q145 0 213.5 -56t68.5 -171q0 -175 -178 -201l187 -318h-183l-178 312h-57v-312h-164zM717 711h141q42 0 73.5 25t31.5 65t-31.5 65t-73.5 25h-141v-180z" />
<glyph unicode="&#xaf;" horiz-adv-x="491" d="M12 1135v127h467v-127h-467z" />
<glyph unicode="&#xb0;" horiz-adv-x="819" d="M117 1020q0 122 85.5 207.5t207.5 85.5q121 0 206.5 -85.5t85.5 -207.5t-85.5 -207.5t-206.5 -85.5q-122 0 -207.5 85.5t-85.5 207.5zM256 1020q0 -63 45.5 -108.5t108.5 -45.5t108 45.5t45 108.5t-45 108.5t-108 45.5t-108.5 -45.5t-45.5 -108.5z" />
<glyph unicode="&#xb1;" horiz-adv-x="1228" d="M96 0v213h1037v-213h-1037zM96 551v213h408v272h213v-272h416v-213h-416v-272h-213v272h-408z" />
<glyph unicode="&#xb2;" horiz-adv-x="739" d="M37 1145q126 168 344 168q148 0 234.5 -70.5t86.5 -173.5q0 -119 -124 -201l-297 -200v-4h419v-140h-645v142l398 290q73 52 73 107q0 47 -46.5 79t-114.5 32q-56 0 -104.5 -28t-80.5 -75z" />
<glyph unicode="&#xb3;" horiz-adv-x="716" d="M25 610l116 105q89 -78 185 -78q82 0 136 47.5t54 108.5q0 64 -59.5 106.5t-163.5 42.5q-42 0 -100 -14l194 219h-326v139h631l-231 -262q92 -6 161.5 -72.5t69.5 -165.5q0 -54 -23 -104.5t-65 -92t-109.5 -66.5t-148.5 -25q-214 0 -321 112z" />
<glyph unicode="&#xb4;" horiz-adv-x="491" d="M86 1100v147l401 103v-148z" />
<glyph unicode="&#xb5;" d="M135 -342v1333h213v-555q0 -108 69.5 -179t170.5 -71t170 71t69 179v555h213v-573q0 -134 -64 -237.5t-162.5 -155.5t-211.5 -52q-81 0 -146.5 36t-103.5 91h-4v-442h-213z" />
<glyph unicode="&#xb6;" horiz-adv-x="1269" d="M102 952q0 95 27.5 161t82 103.5t125.5 53.5t167 16h532v-1286h-188v1135h-176v-1135h-189v629q-193 0 -287 80t-94 243z" />
<glyph unicode="&#xb7;" horiz-adv-x="548" d="M111 496q0 68 47.5 115.5t115.5 47.5t116 -48t48 -115q0 -68 -48 -116t-116 -48q-67 0 -115 48t-48 116z" />
<glyph unicode="&#xb8;" horiz-adv-x="491" d="M260 -41q76 -5 126 -47t50 -113q0 -79 -49.5 -123t-126.5 -49v107q30 2 50 17.5t20 41.5t-20 42t-50 18v106z" />
<glyph unicode="&#xb9;" horiz-adv-x="419" d="M37 1004v161l301 148v-789h-176v549z" />
<glyph unicode="&#xba;" horiz-adv-x="790" d="M51 999q0 56 23 111t65.5 101t109 74t146.5 28t146.5 -28t109 -74t65.5 -101t23 -111q0 -55 -23 -110t-65.5 -100.5t-109 -74t-146.5 -28.5t-146.5 28.5t-109 74t-65.5 100.5t-23 110zM227 999q0 -69 47.5 -115t120.5 -46t120.5 46t47.5 115t-47.5 115.5t-120.5 46.5 t-120.5 -46.5t-47.5 -115.5z" />
<glyph unicode="&#xbb;" horiz-adv-x="1024" d="M86 168l276 393l-276 393l182 64l303 -457l-303 -457zM453 168l276 393l-276 393l182 64l303 -457l-303 -457z" />
<glyph unicode="&#xbc;" horiz-adv-x="1667" d="M66 1004v161l301 148v-789h-177v549zM440 0l426 1286h197l-426 -1286h-197zM934 168l280 604h164l-219 -453h178v181h164v-181h101v-151h-101v-168h-164v168h-403z" />
<glyph unicode="&#xbd;" horiz-adv-x="1667" d="M66 1004v161l301 148v-789h-177v549zM385 0l426 1286h197l-426 -1286h-197zM936 621q125 167 344 167q148 0 235 -70t87 -173q0 -118 -125 -201l-297 -201v-4h419v-139h-645v141l398 291q73 52 73 107q0 47 -46.5 78.5t-114.5 31.5q-56 0 -104.5 -28t-80.5 -74z" />
<glyph unicode="&#xbe;" horiz-adv-x="1667" d="M25 610l116 105q89 -78 185 -78q82 0 136 47.5t54 108.5q0 64 -59.5 106.5t-163.5 42.5q-42 0 -100 -14l194 219h-326v139h631l-231 -262q92 -6 161.5 -72.5t69.5 -165.5q0 -54 -23 -104.5t-65 -92t-109.5 -66.5t-148.5 -25q-214 0 -321 112zM553 0l426 1286h197 l-426 -1286h-197zM934 168l280 604h164l-219 -453h178v181h164v-181h101v-151h-101v-168h-164v168h-403z" />
<glyph unicode="&#xbf;" horiz-adv-x="1138" d="M111 145q0 185 118.5 304.5t296.5 119.5v90h189v-268q-27 6 -60 6q-130 0 -212.5 -70.5t-82.5 -183.5q0 -109 77.5 -180.5t189.5 -71.5q81 0 146 31.5t128 97.5l162 -143q-171 -199 -436 -199q-229 0 -372.5 130t-143.5 337zM496 893q0 53 36 89t89 36q52 0 88 -36 t36 -89t-36 -89t-88 -36q-53 0 -89 36t-36 89z" />
<glyph unicode="&#xc0;" horiz-adv-x="1251" d="M0 0l469 1073h-295v213h533l544 -1286h-256l-98 242h-545l-98 -242h-254zM336 1497v148l401 -103v-147zM438 455h375l-186 460z" />
<glyph unicode="&#xc1;" horiz-adv-x="1251" d="M0 0l469 1073h-295v213h533l544 -1286h-256l-98 242h-545l-98 -242h-254zM418 1395v147l401 103v-148zM438 455h375l-186 460z" />
<glyph unicode="&#xc2;" horiz-adv-x="1251" d="M0 0l469 1073h-295v213h533l544 -1286h-256l-98 242h-545l-98 -242h-254zM348 1395v137l230 76l229 -76v-137l-229 80zM438 455h375l-186 460z" />
<glyph unicode="&#xc3;" horiz-adv-x="1251" d="M0 0l469 1073h-295v213h533l544 -1286h-256l-98 242h-545l-98 -242h-254zM360 1409v125q51 61 142 61q28 0 89.5 -36.5t100.5 -36.5q57 0 103 59v-137q-26 -24 -62.5 -43t-66.5 -19q-36 0 -96 37t-109 37q-57 0 -101 -47zM438 455h375l-186 460z" />
<glyph unicode="&#xc4;" horiz-adv-x="1251" d="M0 0l469 1073h-295v213h533l544 -1286h-256l-98 242h-545l-98 -242h-254zM326 1501q0 44 31 75.5t75 31.5t75.5 -31.5t31.5 -75.5t-31.5 -75t-75.5 -31t-75 31t-31 75zM438 455h375l-186 460zM616 1501q0 44 31.5 75.5t75.5 31.5t75 -31.5t31 -75.5t-31 -75t-75 -31 t-75.5 31t-31.5 75z" />
<glyph unicode="&#xc5;" horiz-adv-x="1251" d="M0 0l469 1073h-295v213h533l544 -1286h-256l-98 242h-545l-98 -242h-254zM422 1534q0 64 46 110t110 46t109.5 -45.5t45.5 -110.5t-45.5 -110.5t-109.5 -45.5t-110 46t-46 110zM438 455h375l-186 460zM504 1534q0 -31 21.5 -52.5t52.5 -21.5t52 21.5t21 52.5t-21 52.5 t-52 21.5t-52.5 -21.5t-21.5 -52.5z" />
<glyph unicode="&#xc6;" horiz-adv-x="1744" d="M16 0l504 1073h-297v213h1442v-225h-750v-289h519v-225h-519v-322h750v-225h-975v242h-321l-107 -242h-246zM463 455h227v501h-4z" />
<glyph unicode="&#xc7;" horiz-adv-x="1366" d="M68 643q0 139 54 263.5t146 213.5t220 141t270 52q159 0 302 -66.5t247 -197.5l-197 -148q-62 90 -153 138t-199 48q-115 0 -216 -58t-163 -161t-62 -225t62 -225t163 -161t216 -58q108 0 201 47t155 131l193 -139q-104 -132 -247.5 -198.5t-301.5 -66.5q-142 0 -270 52 t-220 141t-146 213.5t-54 263.5zM698 -41q76 -5 126 -47t50 -113q0 -79 -49.5 -123t-126.5 -49v107q30 2 50 17.5t20 41.5t-20 42t-50 18v106z" />
<glyph unicode="&#xc8;" horiz-adv-x="1251" d="M31 547v225h153v514h987v-225h-749v-289h522v-225h-522v-322h749v-225h-987v547h-153zM385 1497v148l401 -103v-147z" />
<glyph unicode="&#xc9;" horiz-adv-x="1251" d="M31 547v225h153v514h987v-225h-749v-289h522v-225h-522v-322h749v-225h-987v547h-153zM467 1395v147l401 103v-148z" />
<glyph unicode="&#xca;" horiz-adv-x="1251" d="M31 547v225h153v514h987v-225h-749v-289h522v-225h-522v-322h749v-225h-987v547h-153zM397 1395v137l230 76l229 -76v-137l-229 80z" />
<glyph unicode="&#xcb;" horiz-adv-x="1251" d="M31 547v225h153v514h987v-225h-749v-289h522v-225h-522v-322h749v-225h-987v547h-153zM375 1501q0 44 31 75.5t75 31.5t75.5 -31.5t31.5 -75.5t-31.5 -75t-75.5 -31t-75 31t-31 75zM666 1501q0 44 31 75.5t75 31.5t75.5 -31.5t31.5 -75.5t-31.5 -75t-75.5 -31t-75 31 t-31 75z" />
<glyph unicode="&#xcc;" horiz-adv-x="569" d="M43 1497v148l401 -103v-147zM166 0v1286h237v-1286h-237z" />
<glyph unicode="&#xcd;" horiz-adv-x="569" d="M125 1395v147l401 103v-148zM166 0v1286h237v-1286h-237z" />
<glyph unicode="&#xce;" horiz-adv-x="569" d="M55 1395v137l230 76l229 -76v-137l-229 80zM166 0v1286h237v-1286h-237z" />
<glyph unicode="&#xcf;" horiz-adv-x="569" d="M33 1501q0 44 31 75.5t75 31.5t75.5 -31.5t31.5 -75.5t-31.5 -75t-75.5 -31t-75 31t-31 75zM166 0v1286h237v-1286h-237zM324 1501q0 44 31 75.5t75 31.5t75.5 -31.5t31.5 -75.5t-31.5 -75t-75.5 -31t-75 31t-31 75z" />
<glyph unicode="&#xd0;" horiz-adv-x="1478" d="M25 571v201h153v514h543q158 0 290 -52.5t218.5 -141.5t134 -205t47.5 -244t-49 -244t-136.5 -205t-218.5 -141.5t-286 -52.5h-543v571h-153zM416 225h305q202 0 327.5 121.5t125.5 296.5t-125.5 296.5t-327.5 121.5h-305v-289h432v-201h-432v-346z" />
<glyph unicode="&#xd1;" horiz-adv-x="1366" d="M150 0v1313l829 -815v788h238v-1313l-830 815v-788h-237zM426 1368v125q51 61 141 61q28 0 90 -36.5t101 -36.5q56 0 102 59v-137q-26 -24 -62.5 -43t-66.5 -19q-36 0 -96 37t-109 37q-56 0 -100 -47z" />
<glyph unicode="&#xd2;" horiz-adv-x="1515" d="M68 643q0 139 54 263.5t146 213.5t220 141t270 52t270 -52t220 -141t146 -213.5t54 -263.5t-54 -263.5t-146 -213.5t-220 -141t-270 -52t-270 52t-220 141t-146 213.5t-54 263.5zM317 643q0 -122 62 -225t163 -161t216 -58q86 0 166.5 34.5t140.5 93.5t96.5 142t36.5 174 t-36.5 174t-96.5 142t-140.5 93.5t-166.5 34.5q-115 0 -216 -58t-163 -161t-62 -225zM516 1497v148l402 -103v-147z" />
<glyph unicode="&#xd3;" horiz-adv-x="1515" d="M68 643q0 139 54 263.5t146 213.5t220 141t270 52t270 -52t220 -141t146 -213.5t54 -263.5t-54 -263.5t-146 -213.5t-220 -141t-270 -52t-270 52t-220 141t-146 213.5t-54 263.5zM317 643q0 -122 62 -225t163 -161t216 -58q86 0 166.5 34.5t140.5 93.5t96.5 142t36.5 174 t-36.5 174t-96.5 142t-140.5 93.5t-166.5 34.5q-115 0 -216 -58t-163 -161t-62 -225zM598 1395v147l401 103v-148z" />
<glyph unicode="&#xd4;" horiz-adv-x="1515" d="M68 643q0 139 54 263.5t146 213.5t220 141t270 52t270 -52t220 -141t146 -213.5t54 -263.5t-54 -263.5t-146 -213.5t-220 -141t-270 -52t-270 52t-220 141t-146 213.5t-54 263.5zM317 643q0 -122 62 -225t163 -161t216 -58q86 0 166.5 34.5t140.5 93.5t96.5 142t36.5 174 t-36.5 174t-96.5 142t-140.5 93.5t-166.5 34.5q-115 0 -216 -58t-163 -161t-62 -225zM528 1395v137l230 76l229 -76v-137l-229 80z" />
<glyph unicode="&#xd5;" horiz-adv-x="1515" d="M68 643q0 139 54 263.5t146 213.5t220 141t270 52t270 -52t220 -141t146 -213.5t54 -263.5t-54 -263.5t-146 -213.5t-220 -141t-270 -52t-270 52t-220 141t-146 213.5t-54 263.5zM317 643q0 -122 62 -225t163 -161t216 -58q86 0 166.5 34.5t140.5 93.5t96.5 142t36.5 174 t-36.5 174t-96.5 142t-140.5 93.5t-166.5 34.5q-115 0 -216 -58t-163 -161t-62 -225zM541 1409v125q51 61 141 61q28 0 89.5 -36.5t100.5 -36.5q57 0 103 59v-137q-26 -24 -62.5 -43t-66.5 -19q-36 0 -96 37t-109 37q-56 0 -100 -47z" />
<glyph unicode="&#xd6;" horiz-adv-x="1515" d="M68 643q0 139 54 263.5t146 213.5t220 141t270 52t270 -52t220 -141t146 -213.5t54 -263.5t-54 -263.5t-146 -213.5t-220 -141t-270 -52t-270 52t-220 141t-146 213.5t-54 263.5zM317 643q0 -122 62 -225t163 -161t216 -58q86 0 166.5 34.5t140.5 93.5t96.5 142t36.5 174 t-36.5 174t-96.5 142t-140.5 93.5t-166.5 34.5q-115 0 -216 -58t-163 -161t-62 -225zM506 1501q0 44 31 75.5t75 31.5t75.5 -31.5t31.5 -75.5t-31.5 -75t-75.5 -31t-75 31t-31 75zM797 1501q0 44 31 75.5t75 31.5t75.5 -31.5t31.5 -75.5t-31.5 -75t-75.5 -31t-75 31t-31 75z " />
<glyph unicode="&#xd7;" horiz-adv-x="1228" d="M135 186l332 332l-332 332l148 147l331 -331l332 331l148 -147l-334 -332l334 -332l-148 -147l-332 332l-331 -332z" />
<glyph unicode="&#xd8;" horiz-adv-x="1515" d="M68 643q0 139 54 263.5t146 213.5t220 141t270 52q238 0 424 -137l137 137l106 -109l-133 -133q156 -183 156 -428q0 -139 -54 -263.5t-146 -213.5t-220 -141t-270 -52q-236 0 -424 138l-137 -138l-107 109l133 133q-155 185 -155 428zM317 643q0 -141 82 -252l611 613 q-113 83 -252 83q-115 0 -216 -58t-163 -161t-62 -225zM506 283q114 -84 252 -84q86 0 166.5 34.5t140.5 93.5t96.5 142t36.5 174q0 139 -80 252z" />
<glyph unicode="&#xd9;" horiz-adv-x="1441" d="M150 524v762h237v-711q0 -172 95.5 -274t238.5 -102q144 0 239 102t95 274v711h237v-762q0 -149 -70 -274t-202 -201t-299 -76t-299 76t-202 201t-70 274zM479 1497v148l402 -103v-147z" />
<glyph unicode="&#xda;" horiz-adv-x="1441" d="M150 524v762h237v-711q0 -172 95.5 -274t238.5 -102q144 0 239 102t95 274v711h237v-762q0 -149 -70 -274t-202 -201t-299 -76t-299 76t-202 201t-70 274zM561 1395v147l402 103v-148z" />
<glyph unicode="&#xdb;" horiz-adv-x="1441" d="M150 524v762h237v-711q0 -172 95.5 -274t238.5 -102q144 0 239 102t95 274v711h237v-762q0 -149 -70 -274t-202 -201t-299 -76t-299 76t-202 201t-70 274zM492 1395v137l229 76l229 -76v-137l-229 80z" />
<glyph unicode="&#xdc;" horiz-adv-x="1441" d="M150 524v762h237v-711q0 -172 95.5 -274t238.5 -102q144 0 239 102t95 274v711h237v-762q0 -149 -70 -274t-202 -201t-299 -76t-299 76t-202 201t-70 274zM469 1501q0 44 31 75.5t75 31.5t75.5 -31.5t31.5 -75.5t-31.5 -75t-75.5 -31t-75 31t-31 75zM760 1501 q0 44 31 75.5t75 31.5t75.5 -31.5t31.5 -75.5t-31.5 -75t-75.5 -31t-75 31t-31 75z" />
<glyph unicode="&#xdd;" d="M8 1286h275l305 -500l305 500h274l-460 -719v-567h-238v567zM428 1395v147l401 103v-148z" />
<glyph unicode="&#xde;" horiz-adv-x="1290" d="M31 246v225h153v815h238v-160h375q211 0 337 -123.5t126 -316.5t-126 -316.5t-337 -123.5h-375v-246h-238v246h-153zM422 471h356q120 0 182 61t62 154t-62 154t-182 61h-356v-430z" />
<glyph unicode="&#xdf;" horiz-adv-x="1099" d="M135 -342v1272q0 174 107.5 278.5t292.5 104.5q179 0 290 -95.5t111 -256.5q0 -199 -162 -265v-4q91 -9 168.5 -105t77.5 -214q0 -73 -27.5 -138t-73 -112t-103.5 -81.5t-120.5 -51.5t-122.5 -17q-61 0 -92 4l33 203q18 -6 45 -6q98 0 160.5 54.5t62.5 154.5 q0 96 -69.5 156.5t-175.5 66.5v164q86 1 136 48.5t50 125.5q0 91 -55.5 142t-135.5 51q-82 0 -133 -59.5t-51 -176.5v-1243h-213z" />
<glyph unicode="&#xe0;" horiz-adv-x="1253" d="M61 496q0 92 37.5 184.5t103.5 168t167 122.5t217 47q106 0 189 -41t126 -107h4v121h213v-991h-213v121h-4q-51 -68 -138.5 -108t-187.5 -40q-118 0 -217 45.5t-163 120t-99 167.5t-35 190zM287 496q0 -133 93 -227.5t222 -94.5q127 0 219 94.5t92 227.5t-92 227t-219 94 q-129 0 -222 -94t-93 -227zM385 1202v148l401 -103v-147z" />
<glyph unicode="&#xe1;" horiz-adv-x="1253" d="M61 496q0 92 37.5 184.5t103.5 168t167 122.5t217 47q106 0 189 -41t126 -107h4v121h213v-991h-213v121h-4q-51 -68 -138.5 -108t-187.5 -40q-118 0 -217 45.5t-163 120t-99 167.5t-35 190zM287 496q0 -133 93 -227.5t222 -94.5q127 0 219 94.5t92 227.5t-92 227t-219 94 q-129 0 -222 -94t-93 -227zM467 1100v147l401 103v-148z" />
<glyph unicode="&#xe2;" horiz-adv-x="1253" d="M61 496q0 92 37.5 184.5t103.5 168t167 122.5t217 47q106 0 189 -41t126 -107h4v121h213v-991h-213v121h-4q-51 -68 -138.5 -108t-187.5 -40q-118 0 -217 45.5t-163 120t-99 167.5t-35 190zM287 496q0 -133 93 -227.5t222 -94.5q127 0 219 94.5t92 227.5t-92 227t-219 94 q-129 0 -222 -94t-93 -227zM397 1100v137l230 76l229 -76v-137l-229 80z" />
<glyph unicode="&#xe3;" horiz-adv-x="1253" d="M61 496q0 92 37.5 184.5t103.5 168t167 122.5t217 47q106 0 189 -41t126 -107h4v121h213v-991h-213v121h-4q-51 -68 -138.5 -108t-187.5 -40q-118 0 -217 45.5t-163 120t-99 167.5t-35 190zM287 496q0 -133 93 -227.5t222 -94.5q127 0 219 94.5t92 227.5t-92 227t-219 94 q-129 0 -222 -94t-93 -227zM410 1114v125q51 61 141 61q28 0 89.5 -36.5t100.5 -36.5q57 0 103 59v-137q-26 -24 -62.5 -43t-66.5 -19q-36 0 -96 37t-109 37q-56 0 -100 -47z" />
<glyph unicode="&#xe4;" horiz-adv-x="1253" d="M61 496q0 92 37.5 184.5t103.5 168t167 122.5t217 47q106 0 189 -41t126 -107h4v121h213v-991h-213v121h-4q-51 -68 -138.5 -108t-187.5 -40q-118 0 -217 45.5t-163 120t-99 167.5t-35 190zM287 496q0 -133 93 -227.5t222 -94.5q127 0 219 94.5t92 227.5t-92 227t-219 94 q-129 0 -222 -94t-93 -227zM375 1206q0 44 31 75.5t75 31.5t75.5 -31.5t31.5 -75.5t-31.5 -75t-75.5 -31t-75 31t-31 75zM666 1206q0 44 31 75.5t75 31.5t75.5 -31.5t31.5 -75.5t-31.5 -75t-75.5 -31t-75 31t-31 75z" />
<glyph unicode="&#xe5;" horiz-adv-x="1253" d="M61 496q0 92 37.5 184.5t103.5 168t167 122.5t217 47q106 0 189 -41t126 -107h4v121h213v-991h-213v121h-4q-51 -68 -138.5 -108t-187.5 -40q-118 0 -217 45.5t-163 120t-99 167.5t-35 190zM287 496q0 -133 93 -227.5t222 -94.5q127 0 219 94.5t92 227.5t-92 227t-219 94 q-129 0 -222 -94t-93 -227zM446 1239q0 65 46 110.5t110 45.5t110 -45.5t46 -110.5t-46 -110.5t-110 -45.5t-110 45.5t-46 110.5zM528 1239q0 -31 21.5 -52.5t52.5 -21.5t52.5 21.5t21.5 52.5t-21.5 52.5t-52.5 21.5t-52.5 -21.5t-21.5 -52.5z" />
<glyph unicode="&#xe6;" horiz-adv-x="2048" d="M72 496q0 73 23 147.5t69 141.5t108 119.5t146 83t178 30.5q106 0 189 -41t126 -107h4v121h189v-131h4q57 74 148 116t194 42q68 0 139 -20t141 -65t124 -108t88 -158t34 -206v-39h-835q32 -131 117 -195.5t198 -64.5q171 0 287 153l180 -100q-91 -114 -212 -177.5 t-261 -64.5q-103 0 -206.5 48t-135.5 110h-4v-131h-189v121h-4q-52 -68 -138.5 -108t-186.5 -40q-118 0 -217 45.5t-163 120t-99 167.5t-35 190zM297 496q0 -133 93 -227.5t222 -94.5q127 0 219.5 94.5t92.5 227.5t-92.5 227t-219.5 94q-129 0 -222 -94t-93 -227zM1141 598 h585q-35 110 -112.5 170.5t-179.5 60.5t-180 -61t-113 -170z" />
<glyph unicode="&#xe7;" horiz-adv-x="1099" d="M61 496q0 99 37.5 192t105.5 167t173.5 118.5t230.5 44.5q279 0 445 -240l-187 -110q-97 149 -258 149q-138 0 -229.5 -93t-91.5 -228t91.5 -228.5t229.5 -93.5q163 0 258 150l187 -111q-68 -107 -187.5 -173.5t-257.5 -66.5q-101 0 -189.5 29t-153 79.5t-111 117 t-70 142.5t-23.5 155zM565 -41q76 -5 126 -47t50 -113q0 -79 -49.5 -123t-126.5 -49v107q30 2 50 17.5t20 41.5t-20 42t-50 18v106z" />
<glyph unicode="&#xe8;" horiz-adv-x="1216" d="M78 496q0 99 37.5 192t105.5 167t173.5 118.5t230.5 44.5q64 0 133 -20t137.5 -65t122.5 -108t87.5 -158t33.5 -206v-39h-824q9 -112 98.5 -186t204.5 -74q171 0 287 153l180 -100q-90 -114 -209 -177.5t-251 -64.5q-101 0 -189.5 29t-153 79.5t-111 117t-70 142.5 t-23.5 155zM315 598h574q-33 112 -111 171.5t-182 59.5q-103 0 -179 -61t-102 -170zM367 1202v148l401 -103v-147z" />
<glyph unicode="&#xe9;" horiz-adv-x="1216" d="M78 496q0 99 37.5 192t105.5 167t173.5 118.5t230.5 44.5q64 0 133 -20t137.5 -65t122.5 -108t87.5 -158t33.5 -206v-39h-824q9 -112 98.5 -186t204.5 -74q171 0 287 153l180 -100q-90 -114 -209 -177.5t-251 -64.5q-101 0 -189.5 29t-153 79.5t-111 117t-70 142.5 t-23.5 155zM315 598h574q-33 112 -111 171.5t-182 59.5q-103 0 -179 -61t-102 -170zM449 1100v147l401 103v-148z" />
<glyph unicode="&#xea;" horiz-adv-x="1216" d="M78 496q0 99 37.5 192t105.5 167t173.5 118.5t230.5 44.5q64 0 133 -20t137.5 -65t122.5 -108t87.5 -158t33.5 -206v-39h-824q9 -112 98.5 -186t204.5 -74q171 0 287 153l180 -100q-90 -114 -209 -177.5t-251 -64.5q-101 0 -189.5 29t-153 79.5t-111 117t-70 142.5 t-23.5 155zM315 598h574q-33 112 -111 171.5t-182 59.5q-103 0 -179 -61t-102 -170zM379 1100v137l229 76l230 -76v-137l-230 80z" />
<glyph unicode="&#xeb;" horiz-adv-x="1216" d="M78 496q0 99 37.5 192t105.5 167t173.5 118.5t230.5 44.5q64 0 133 -20t137.5 -65t122.5 -108t87.5 -158t33.5 -206v-39h-824q9 -112 98.5 -186t204.5 -74q171 0 287 153l180 -100q-90 -114 -209 -177.5t-251 -64.5q-101 0 -189.5 29t-153 79.5t-111 117t-70 142.5 t-23.5 155zM315 598h574q-33 112 -111 171.5t-182 59.5q-103 0 -179 -61t-102 -170zM356 1206q0 44 31.5 75.5t75.5 31.5t75 -31.5t31 -75.5t-31 -75t-75 -31t-75.5 31t-31.5 75zM647 1206q0 44 31.5 75.5t75.5 31.5t75 -31.5t31 -75.5t-31 -75t-75 -31t-75.5 31t-31.5 75z " />
<glyph unicode="&#xec;" horiz-adv-x="491" d="M4 1202v148l402 -103v-147zM139 0v991h213v-991h-213z" />
<glyph unicode="&#xed;" horiz-adv-x="491" d="M86 1100v147l401 103v-148zM139 0v991h213v-991h-213z" />
<glyph unicode="&#xee;" horiz-adv-x="491" d="M16 1100v137l230 76l229 -76v-137l-229 80zM139 0v991h213v-991h-213z" />
<glyph unicode="&#xef;" horiz-adv-x="491" d="M-6 1206q0 44 31 75.5t75 31.5t75.5 -31.5t31.5 -75.5t-31.5 -75t-75.5 -31t-75 31t-31 75zM139 0v991h213v-991h-213zM285 1206q0 44 31 75.5t75 31.5t75.5 -31.5t31.5 -75.5t-31.5 -75t-75.5 -31t-75 31t-31 75z" />
<glyph unicode="&#xf0;" horiz-adv-x="1216" d="M61 475q0 95 37.5 184t105.5 159.5t173.5 113.5t230.5 43q163 0 262 -96h4q-73 130 -233 254l-219 -101l-92 92l190 88q-109 64 -192 84l174 99q100 -34 200 -99l207 97l97 -95l-187 -84q154 -125 245 -293.5t91 -361.5q0 -262 -151 -424t-396 -162q-125 0 -230.5 43 t-173.5 114t-105.5 160.5t-37.5 184.5zM287 475q0 -133 91 -223t230 -90t230.5 90t91.5 223q0 131 -92 221t-230 90t-229.5 -89.5t-91.5 -221.5z" />
<glyph unicode="&#xf1;" d="M135 0v991h213v-125h4q45 70 124.5 111t178.5 41q160 0 272.5 -119.5t112.5 -300.5v-598h-213v551q0 130 -62 192t-173 62q-107 0 -175.5 -66t-68.5 -184v-555h-213zM371 1114v125q51 61 141 61q28 0 89.5 -36.5t100.5 -36.5q57 0 103 59v-137q-26 -24 -62.5 -43 t-66.5 -19q-36 0 -96 37t-109 37q-56 0 -100 -47z" />
<glyph unicode="&#xf2;" horiz-adv-x="1216" d="M61 496q0 99 37.5 192t105.5 167t173.5 118.5t230.5 44.5t230.5 -44.5t173.5 -118.5t105.5 -167t37.5 -192q0 -79 -23.5 -155t-70 -142.5t-111 -117t-153 -79.5t-189.5 -29t-189.5 29t-153 79.5t-111 117t-70 142.5t-23.5 155zM287 496q0 -135 91.5 -228.5t229.5 -93.5 t230 93.5t92 228.5t-92 228t-230 93t-229.5 -93t-91.5 -228zM367 1202v148l401 -103v-147z" />
<glyph unicode="&#xf3;" horiz-adv-x="1216" d="M61 496q0 99 37.5 192t105.5 167t173.5 118.5t230.5 44.5t230.5 -44.5t173.5 -118.5t105.5 -167t37.5 -192q0 -79 -23.5 -155t-70 -142.5t-111 -117t-153 -79.5t-189.5 -29t-189.5 29t-153 79.5t-111 117t-70 142.5t-23.5 155zM287 496q0 -135 91.5 -228.5t229.5 -93.5 t230 93.5t92 228.5t-92 228t-230 93t-229.5 -93t-91.5 -228zM449 1100v147l401 103v-148z" />
<glyph unicode="&#xf4;" horiz-adv-x="1216" d="M61 496q0 99 37.5 192t105.5 167t173.5 118.5t230.5 44.5t230.5 -44.5t173.5 -118.5t105.5 -167t37.5 -192q0 -79 -23.5 -155t-70 -142.5t-111 -117t-153 -79.5t-189.5 -29t-189.5 29t-153 79.5t-111 117t-70 142.5t-23.5 155zM287 496q0 -135 91.5 -228.5t229.5 -93.5 t230 93.5t92 228.5t-92 228t-230 93t-229.5 -93t-91.5 -228zM379 1100v137l229 76l230 -76v-137l-230 80z" />
<glyph unicode="&#xf5;" horiz-adv-x="1216" d="M61 496q0 99 37.5 192t105.5 167t173.5 118.5t230.5 44.5t230.5 -44.5t173.5 -118.5t105.5 -167t37.5 -192q0 -79 -23.5 -155t-70 -142.5t-111 -117t-153 -79.5t-189.5 -29t-189.5 29t-153 79.5t-111 117t-70 142.5t-23.5 155zM287 496q0 -135 91.5 -228.5t229.5 -93.5 t230 93.5t92 228.5t-92 228t-230 93t-229.5 -93t-91.5 -228zM391 1114v125q51 61 141 61q28 0 90 -36.5t101 -36.5q56 0 102 59v-137q-26 -24 -62.5 -43t-66.5 -19q-36 0 -95.5 37t-108.5 37q-57 0 -101 -47z" />
<glyph unicode="&#xf6;" horiz-adv-x="1216" d="M61 496q0 99 37.5 192t105.5 167t173.5 118.5t230.5 44.5t230.5 -44.5t173.5 -118.5t105.5 -167t37.5 -192q0 -79 -23.5 -155t-70 -142.5t-111 -117t-153 -79.5t-189.5 -29t-189.5 29t-153 79.5t-111 117t-70 142.5t-23.5 155zM287 496q0 -135 91.5 -228.5t229.5 -93.5 t230 93.5t92 228.5t-92 228t-230 93t-229.5 -93t-91.5 -228zM356 1206q0 44 31.5 75.5t75.5 31.5t75 -31.5t31 -75.5t-31 -75t-75 -31t-75.5 31t-31.5 75zM647 1206q0 44 31.5 75.5t75.5 31.5t75 -31.5t31 -75.5t-31 -75t-75 -31t-75.5 31t-31.5 75z" />
<glyph unicode="&#xf7;" horiz-adv-x="1228" d="M96 412v213h1037v-213h-1037zM451 94q0 68 48 116t115 48q68 0 116 -48t48 -116t-48 -116t-116 -48q-67 0 -115 48t-48 116zM451 942q0 68 48 116t115 48q68 0 116 -48t48 -116t-48 -116t-116 -48q-67 0 -115 48t-48 116z" />
<glyph unicode="&#xf8;" horiz-adv-x="1216" d="M61 496q0 99 37.5 192t105.5 167t173.5 118.5t230.5 44.5q188 0 332 -100l94 94l88 -88l-90 -93q123 -148 123 -335q0 -79 -23.5 -155t-70 -142.5t-111 -117t-153 -79.5t-189.5 -29q-190 0 -332 101l-94 -94l-88 88l92 92q-125 146 -125 336zM287 496q0 -104 53 -181 l446 449q-74 53 -178 53q-138 0 -229.5 -93t-91.5 -228zM430 227q74 -53 178 -53q138 0 230 93.5t92 228.5q0 103 -53 180z" />
<glyph unicode="&#xf9;" d="M135 418v573h213v-555q0 -108 69.5 -179t170.5 -71t170 71t69 179v555h213v-573q0 -135 -64.5 -238t-166 -155t-221.5 -52t-222 52t-166.5 155t-64.5 238zM346 1202v148l402 -103v-147z" />
<glyph unicode="&#xfa;" d="M135 418v573h213v-555q0 -108 69.5 -179t170.5 -71t170 71t69 179v555h213v-573q0 -135 -64.5 -238t-166 -155t-221.5 -52t-222 52t-166.5 155t-64.5 238zM428 1100v147l401 103v-148z" />
<glyph unicode="&#xfb;" d="M135 418v573h213v-555q0 -108 69.5 -179t170.5 -71t170 71t69 179v555h213v-573q0 -135 -64.5 -238t-166 -155t-221.5 -52t-222 52t-166.5 155t-64.5 238zM358 1100v137l230 76l229 -76v-137l-229 80z" />
<glyph unicode="&#xfc;" d="M135 418v573h213v-555q0 -108 69.5 -179t170.5 -71t170 71t69 179v555h213v-573q0 -135 -64.5 -238t-166 -155t-221.5 -52t-222 52t-166.5 155t-64.5 238zM336 1206q0 44 31 75.5t75 31.5t75.5 -31.5t31.5 -75.5t-31.5 -75t-75.5 -31t-75 31t-31 75zM627 1206 q0 44 31 75.5t75 31.5t75.5 -31.5t31.5 -75.5t-31.5 -75t-75.5 -31t-75 31t-31 75z" />
<glyph unicode="&#xfd;" d="M135 418v573h213v-581q0 -119 64.5 -177.5t169.5 -58.5q121 0 183 68.5t62 187.5v561h213v-960q0 -87 -29.5 -161.5t-76.5 -124t-107.5 -84.5t-121 -51t-117.5 -16q-106 0 -187.5 27.5t-129.5 65.5t-103 102l180 111q108 -105 227 -105q113 0 189 68t76 192v54h-4 q-65 -73 -132 -104.5t-167 -31.5q-171 0 -286.5 121t-115.5 324zM428 1100v147l401 103v-148z" />
<glyph unicode="&#xfe;" horiz-adv-x="1253" d="M135 -342v1628h213v-416h4q120 148 326 148q118 0 217 -45.5t163 -120t99 -167t35 -189.5q0 -92 -37.5 -184.5t-103 -168t-166.5 -123t-217 -47.5q-106 0 -189.5 41t-126.5 107h-4v-463h-213zM340 496q0 -133 92 -227.5t219 -94.5q129 0 222.5 94.5t93.5 227.5t-93 227 t-223 94q-127 0 -219 -94t-92 -227z" />
<glyph unicode="&#xff;" d="M135 418v573h213v-581q0 -119 64.5 -177.5t169.5 -58.5q121 0 183 68.5t62 187.5v561h213v-960q0 -87 -29.5 -161.5t-76.5 -124t-107.5 -84.5t-121 -51t-117.5 -16q-106 0 -187.5 27.5t-129.5 65.5t-103 102l180 111q108 -105 227 -105q113 0 189 68t76 192v54h-4 q-65 -73 -132 -104.5t-167 -31.5q-171 0 -286.5 121t-115.5 324zM336 1206q0 44 31 75.5t75 31.5t75.5 -31.5t31.5 -75.5t-31.5 -75t-75.5 -31t-75 31t-31 75zM627 1206q0 44 31 75.5t75 31.5t75.5 -31.5t31.5 -75.5t-31.5 -75t-75.5 -31t-75 31t-31 75z" />
<glyph unicode="&#x152;" horiz-adv-x="2238" d="M88 643q0 139 54 263.5t146 213.5t220 141t270 52q136 0 245 -45.5t173 -130.5h4v149h979v-225h-754v-318h527v-225h-527v-293h754v-225h-979v168h-4q-75 -98 -188 -146.5t-230 -48.5q-142 0 -270 52t-220 141t-146 213.5t-54 263.5zM338 643q0 -91 36.5 -174t96.5 -142 t140.5 -93.5t166.5 -34.5q150 0 264 89t158 230h-151v225h157q-36 150 -154 247t-274 97q-86 0 -166.5 -34.5t-140.5 -93.5t-96.5 -142t-36.5 -174z" />
<glyph unicode="&#x153;" horiz-adv-x="2048" d="M72 496q0 94 34.5 185t99.5 167t172 123t240 47q125 0 236.5 -58.5t179.5 -162.5q71 107 177.5 164t238.5 57q68 0 139 -20t141 -65t124 -108t88 -158t34 -206v-39h-835q32 -131 117 -195.5t198 -64.5q171 0 287 153l180 -100q-91 -114 -212 -177.5t-261 -64.5 q-131 0 -240 58.5t-176 167.5q-73 -110 -180.5 -168t-235.5 -58q-133 0 -240 47t-172 123.5t-99.5 167.5t-34.5 185zM297 496q0 -135 91.5 -228.5t229.5 -93.5t230 93.5t92 228.5t-92 228t-230 93t-229.5 -93t-91.5 -228zM1141 598h585q-35 110 -112.5 170.5t-179.5 60.5 t-180 -61t-113 -170z" />
<glyph unicode="&#x178;" d="M8 1286h275l305 -500l305 500h274l-460 -719v-567h-238v567zM336 1501q0 44 31 75.5t75 31.5t75.5 -31.5t31.5 -75.5t-31.5 -75t-75.5 -31t-75 31t-31 75zM627 1501q0 44 31 75.5t75 31.5t75.5 -31.5t31.5 -75.5t-31.5 -75t-75.5 -31t-75 31t-31 75z" />
<glyph unicode="&#x2c6;" horiz-adv-x="491" d="M16 1100v137l230 76l229 -76v-137l-229 80z" />
<glyph unicode="&#x2dc;" horiz-adv-x="491" d="M29 1114v125q51 61 141 61q28 0 89.5 -36.5t100.5 -36.5q57 0 103 59v-137q-26 -24 -62.5 -43t-66.5 -19q-36 0 -96 37t-109 37q-56 0 -100 -47z" />
<glyph unicode="&#x2000;" horiz-adv-x="845" />
<glyph unicode="&#x2001;" horiz-adv-x="1690" />
<glyph unicode="&#x2002;" horiz-adv-x="845" />
<glyph unicode="&#x2003;" horiz-adv-x="1690" />
<glyph unicode="&#x2004;" horiz-adv-x="563" />
<glyph unicode="&#x2005;" horiz-adv-x="422" />
<glyph unicode="&#x2006;" horiz-adv-x="281" />
<glyph unicode="&#x2007;" horiz-adv-x="281" />
<glyph unicode="&#x2008;" horiz-adv-x="211" />
<glyph unicode="&#x2009;" horiz-adv-x="338" />
<glyph unicode="&#x200a;" horiz-adv-x="93" />
<glyph unicode="&#x2010;" horiz-adv-x="606" d="M98 557v201h410v-201h-410z" />
<glyph unicode="&#x2011;" horiz-adv-x="606" d="M98 557v201h410v-201h-410z" />
<glyph unicode="&#x2012;" horiz-adv-x="606" d="M98 557v201h410v-201h-410z" />
<glyph unicode="&#x2013;" horiz-adv-x="1024" d="M0 569v176h1024v-176h-1024z" />
<glyph unicode="&#x2014;" horiz-adv-x="2048" d="M0 569v176h2048v-176h-2048z" />
<glyph unicode="&#x2018;" horiz-adv-x="454" d="M121 905v238l213 143v-381h-213z" />
<glyph unicode="&#x2019;" horiz-adv-x="454" d="M121 905v381h213v-237z" />
<glyph unicode="&#x201a;" horiz-adv-x="454" d="M121 -170v381h213v-238z" />
<glyph unicode="&#x201c;" horiz-adv-x="720" d="M98 905v238l213 143v-381h-213zM410 905v238l213 143v-381h-213z" />
<glyph unicode="&#x201d;" horiz-adv-x="720" d="M98 905v381h213v-237zM410 905v381h213v-237z" />
<glyph unicode="&#x201e;" horiz-adv-x="720" d="M98 -170v381h213v-238zM410 -170v381h213v-238z" />
<glyph unicode="&#x2022;" horiz-adv-x="1024" d="M190 643q0 133 94 227.5t228 94.5t228 -94.5t94 -227.5t-94 -227t-228 -94t-228 94t-94 227z" />
<glyph unicode="&#x2026;" horiz-adv-x="2048" d="M217 98q0 52 36.5 88.5t88.5 36.5t88.5 -36.5t36.5 -88.5t-36.5 -88.5t-88.5 -36.5t-88.5 36.5t-36.5 88.5zM899 98q0 52 36.5 88.5t88.5 36.5t88.5 -36.5t36.5 -88.5t-36.5 -88.5t-88.5 -36.5t-88.5 36.5t-36.5 88.5zM1581 98q0 52 36.5 88.5t88.5 36.5t88.5 -36.5 t36.5 -88.5t-36.5 -88.5t-88.5 -36.5t-88.5 36.5t-36.5 88.5z" />
<glyph unicode="&#x202f;" horiz-adv-x="338" />
<glyph unicode="&#x2039;" horiz-adv-x="681" d="M98 561l303 457l183 -64l-277 -393l277 -393l-183 -64z" />
<glyph unicode="&#x203a;" horiz-adv-x="681" d="M98 168l277 393l-277 393l183 64l303 -457l-303 -457z" />
<glyph unicode="&#x205f;" horiz-adv-x="422" />
<glyph unicode="&#x2122;" horiz-adv-x="2048" d="M41 1122v164h692v-164h-239v-680h-213v680h-240zM901 442v844h287l203 -532h4l202 532h287v-844h-188v598h-4l-222 -598h-155l-221 598h-4v-598h-189z" />
<glyph unicode="&#x25fc;" horiz-adv-x="993" d="M0 0v993h993v-993h-993z" />
<glyph unicode="&#xfb01;" horiz-adv-x="1024" d="M51 586v200h139v168q0 71 22 134t65.5 114t116 81t165.5 30q97 0 164 -27l-88 -192q-43 18 -94 18q-62 0 -100 -43.5t-38 -101.5v-181h281v205h213v-991h-213v586h-281v-928h-213v928h-139z" />
<glyph unicode="&#xfb02;" horiz-adv-x="1077" d="M51 586v200h139v168q0 71 22 134t65.5 114t116 81t165.5 30h25v-201q-91 0 -136 -42t-45 -103v-181h281v500h213v-876q0 -85 20 -130t68 -73l115 -66l-94 -168q-72 34 -118.5 60.5t-89 60.5t-65.5 70.5t-36 85t-13 110.5v226h-281v-928h-213v928h-139z" />
</font>
</defs>
</svg>
