<?xml version="1.0" encoding="utf-8"?>
<!-- Generator: Adobe Illustrator 16.0.4, SVG Export Plug-In . SVG Version: 6.00 Build 0)  -->
<!DOCTYPE svg PUBLIC "-//W3C//DTD SVG 1.1//EN" "http://www.w3.org/Graphics/SVG/1.1/DTD/svg11.dtd">
<svg version="1.1" id="Layer_1" xmlns="http://www.w3.org/2000/svg" xmlns:xlink="http://www.w3.org/1999/xlink" x="0px" y="0px"
	 width="451.009px" height="272.016px" viewBox="0 0 451.009 272.016" enable-background="new 0 0 451.009 272.016"
	 xml:space="preserve">
<g>
	
		<image overflow="visible" opacity="0.75" width="450" height="283" xlink:href="E9AD9D84F73BD6F6.png"  transform="matrix(1 0 0 1 5.501 -2.2075)">
	</image>
	<g>
		<g>
			<path fill="#60DAFB" d="M297.323,99.138v40.817L137.756,258.792H86.024L297.323,99.138z"/>
			<linearGradient id="SVGID_1_" gradientUnits="userSpaceOnUse" x1="14" y1="132.396" x2="254.2803" y2="132.396">
				<stop  offset="0" style="stop-color:#60DAFB"/>
				<stop  offset="1" style="stop-color:#0071BC"/>
			</linearGradient>
			<path fill="url(#SVGID_1_)" d="M84.875,124.742h64.565c30.427,0,44.157-18.183,44.157-38.962
				c0-20.78-13.729-38.963-44.157-38.963H84.875V124.742z M41.83,165.56H14v-40.818h27.83V6h110.949
				c51.95,0,83.861,34.139,83.861,79.78c0,33.768-23.376,60.485-54.546,70.133l72.186,102.88h-54.41l-62.303-93.232H84.875v73.471
				H41.83V165.56z"/>
			<linearGradient id="SVGID_2_" gradientUnits="userSpaceOnUse" x1="254.2803" y1="122.5151" x2="433.1357" y2="122.5151">
				<stop  offset="0" style="stop-color:#60DAFB"/>
				<stop  offset="1" style="stop-color:#0071BC"/>
			</linearGradient>
			<path fill="url(#SVGID_2_)" d="M254.28,6h178.855v40.817H297.323v52.321h94.623v40.817h-94.623v99.075H254.28V6z"/>
		</g>
	</g>
</g>
</svg>
